<?xml version="1.0" ?>
<!-- Uploaded to: SVG Repo, www.svgrepo.com, Generator: SVG Repo Mixer Tools -->
<svg width="800px" height="800px" viewBox="0 0 64 64" id="Layer_1" version="1.1" xml:space="preserve" xmlns="http://www.w3.org/2000/svg" xmlns:xlink="http://www.w3.org/1999/xlink">
<style type="text/css">
	.st0{fill:#1379C2;}
	.st1{fill:#358DCC;}
	.st2{fill-rule:evenodd;clip-rule:evenodd;fill:#3FB754;}
	.st3{fill-rule:evenodd;clip-rule:evenodd;fill:#CCCCCC;}
	.st4{fill:#5D5E61;}
	.st5{fill:#924F34;}
	.st6{fill:#E6E6E6;}
	.st7{fill:#0F8C7E;}
	.st8{fill-rule:evenodd;clip-rule:evenodd;fill:#E6E6E6;}
	.st9{fill-rule:evenodd;clip-rule:evenodd;fill:#E6E6E6;stroke:#000000;stroke-width:0.4799;stroke-miterlimit:2.6131;}
	.st10{fill:#823B1F;}
	.st11{fill:#FFC810;}
	.st12{fill-rule:evenodd;clip-rule:evenodd;fill:#924F34;}
	.st13{fill:#E04538;}
	.st14{fill-rule:evenodd;clip-rule:evenodd;}
	.st15{fill-rule:evenodd;clip-rule:evenodd;fill:#FFC810;}
	.st16{fill-rule:evenodd;clip-rule:evenodd;fill:#E4E7E9;}
	.st17{fill:#3FB754;}
	.st18{fill-rule:evenodd;clip-rule:evenodd;fill:#5D5E61;}
	.st19{fill:#C92B1C;}
	.st20{fill:#666666;}
	.st21{fill:#FFD95E;}
	.st22{fill:#4D4D4D;}
	.st23{fill-rule:evenodd;clip-rule:evenodd;fill:#0F8C7E;}
	.st24{fill:#999999;}
	.st25{fill:#CCCCCC;}
	.st26{fill-rule:evenodd;clip-rule:evenodd;fill:#358DCC;}
	.st27{fill-rule:evenodd;clip-rule:evenodd;fill:#823B1F;}
</style>
<g>
<path class="st5" d="M29.8,14.1c-3.3,0.4-6.3,1.7-8.9,3.7l2.8,2.8c1.8-1.3,3.8-2.2,6-2.5V14.1L29.8,14.1z M13.2,53.9   c-0.9,0.9-2.3,0.9-3.2,0c-0.9-0.9-0.9-2.3,0-3.2l4.5-4.5c-2.7-3.3-4.5-7.5-5-12.1H3.2C2,34.2,1,33.2,1,32c0-1.2,1-2.2,2.3-2.2h6.3   c0.5-4.5,2.3-8.7,5-12l-4.5-4.5c-0.9-0.9-0.9-2.3,0-3.2c0.9-0.9,2.3-0.9,3.2,0l4.5,4.5c3.3-2.7,7.5-4.5,12-5V3.2   C29.8,2,30.8,1,32,1c1.2,0,2.2,1,2.2,2.3v6.3c4.5,0.5,8.7,2.3,12,5l4.5-4.5c0.9-0.9,2.3-0.9,3.2,0c0.9,0.9,0.9,2.3,0,3.2l-4.5,4.5   c2.7,3.3,4.5,7.5,5,12h6.3c1.2,0,2.3,1,2.3,2.2c0,1.2-1,2.2-2.3,2.2h-6.3c-0.4,4.5-2.3,8.7-5,12l4.5,4.5c0.9,0.9,0.9,2.3,0,3.2   c-0.9,0.9-2.3,0.9-3.2,0l-4.5-4.5c-3.3,2.7-7.5,4.5-12,5v6.3c0,1.2-1,2.3-2.2,2.3c-1.2,0-2.2-1-2.2-2.3v-6.3   c-4.5-0.5-8.7-2.2-12.1-5L13.2,53.9L13.2,53.9z M17.7,43.1l2.8-2.8c-1.3-1.8-2.2-3.8-2.5-6h-4C14.5,37.6,15.8,40.6,17.7,43.1   L17.7,43.1z M23.8,37.1l2.8-2.8h-4C22.8,35.3,23.2,36.2,23.8,37.1L23.8,37.1z M34.2,26.6l2.8-2.8c-0.9-0.5-1.8-0.9-2.8-1.2V26.6   L34.2,26.6z M40.3,20.5l2.8-2.8c-2.5-1.9-5.5-3.3-8.8-3.7v4C36.5,18.4,38.5,19.3,40.3,20.5L40.3,20.5z M46.3,20.9l-2.8,2.8   c1.3,1.8,2.2,3.8,2.5,6h4C49.5,26.4,48.2,23.4,46.3,20.9L46.3,20.9z M40.2,26.9l-2.8,2.8h4C41.2,28.7,40.8,27.8,40.2,26.9   L40.2,26.9z M29.8,37.4l-2.8,2.8c0.9,0.5,1.8,0.9,2.8,1.2V37.4L29.8,37.4z M23.7,43.5l-2.8,2.8c2.5,2,5.5,3.3,8.9,3.7v-4   C27.5,45.6,25.5,44.7,23.7,43.5L23.7,43.5z M17.7,20.9c-1.9,2.5-3.3,5.5-3.7,8.9h4c0.4-2.2,1.2-4.3,2.5-6L17.7,20.9L17.7,20.9z    M26.9,23.8l2.8,2.8v-4C28.7,22.8,27.8,23.2,26.9,23.8L26.9,23.8z M37.4,34.2l2.8,2.8c0.5-0.9,0.9-1.8,1.2-2.8H37.4L37.4,34.2z    M43.5,40.3l2.8,2.8c1.9-2.5,3.3-5.5,3.7-8.9h-4C45.6,36.5,44.7,38.5,43.5,40.3L43.5,40.3z M43.1,46.3l-2.8-2.8   c-1.8,1.3-3.8,2.2-6,2.5v4C37.6,49.5,40.6,48.2,43.1,46.3L43.1,46.3z M37.1,40.2l-2.8-2.8v4C35.3,41.2,36.2,40.8,37.1,40.2   L37.1,40.2z M26.6,29.8l-2.8-2.8c-0.5,0.9-0.9,1.8-1.2,2.8H26.6L26.6,29.8z"/>
<path class="st27" d="M14.1,34.2h4c0.4,2.2,1.2,4.3,2.5,6l-2.8,2.8C15.8,40.6,14.5,37.6,14.1,34.2L14.1,34.2z M23.7,43.5   c1.8,1.3,3.8,2.2,6,2.5v4c-3.3-0.4-6.3-1.7-8.9-3.7L23.7,43.5L23.7,43.5z M14.1,29.7c0.4-3.3,1.7-6.3,3.7-8.9l2.8,2.8   c-1.3,1.8-2.2,3.8-2.5,6H14.1L14.1,29.7z M23.7,20.5l-2.8-2.8c2.5-1.9,5.5-3.3,8.9-3.7v4C27.5,18.4,25.5,19.2,23.7,20.5L23.7,20.5z    M29.8,26.6l-2.8-2.8c0.9-0.5,1.8-0.9,2.8-1.2V26.6L29.8,26.6z M26.6,29.7h-4c0.2-1,0.6-2,1.2-2.8L26.6,29.7L26.6,29.7z M23.8,37.1   c-0.5-0.9-0.9-1.8-1.2-2.8h4L23.8,37.1L23.8,37.1z M26.9,40.2l2.8-2.8v4C28.7,41.2,27.8,40.8,26.9,40.2L26.9,40.2z M32,63L32,1   c-1.2,0-2.2,1-2.2,2.3v6.3c-4.5,0.5-8.7,2.3-12,5l-4.5-4.5c-0.9-0.9-2.3-0.9-3.2,0c-0.9,0.9-0.9,2.3,0,3.2l4.5,4.5   c-2.7,3.3-4.5,7.5-5,12H3.2C2,29.8,1,30.8,1,32c0,1.2,1,2.2,2.3,2.2h6.3c0.4,4.5,2.2,8.7,5,12.1l-4.5,4.5c-0.9,0.9-0.9,2.3,0,3.2   c0.9,0.9,2.3,0.9,3.2,0l4.5-4.5c3.3,2.7,7.5,4.5,12.1,5v6.3C29.8,62,30.8,63,32,63L32,63z"/>
<path d="M28.8,15.2c-2.3,0.4-4.5,1.3-6.4,2.6l1.4,1.4c1.5-1,3.2-1.7,5-2.1V15.2L28.8,15.2z M29.6,13.1l1.1-0.1v1.1v4v0.8   c-2.5,0.4-4.4,1-6.4,2.5l-0.7,0.5L23,21.2l-2.8-2.8l-0.8-0.8l0.9-0.7C23,14.9,26.2,13.5,29.6,13.1L29.6,13.1z M13.9,54.6   c-0.6,0.6-1.5,0.9-2.3,0.9c-0.8,0-1.6-0.3-2.3-0.9c-0.6-0.6-0.9-1.5-0.9-2.3c0-0.8,0.3-1.6,0.9-2.3h0l3.9-3.9c-2.4-3.2-4-7-4.6-11   H3.2c-0.9,0-1.7-0.4-2.3-0.9l0,0C0.4,33.7,0,32.9,0,32c0-0.9,0.4-1.7,0.9-2.3l0,0c0.6-0.6,1.4-0.9,2.3-0.9h5.5   c0.5-4,2.1-7.8,4.6-11l-3.9-3.9c-0.6-0.6-0.9-1.5-0.9-2.3c0-0.8,0.3-1.6,0.9-2.3v0c0.6-0.6,1.5-0.9,2.3-0.9c0.8,0,1.6,0.3,2.3,0.9   l3.9,3.9c3.2-2.4,7-4,11-4.6V3.2C28.8,1.4,30.2,0,32,0c1.8,0,3.2,1.4,3.2,3.2v5.5c4,0.5,7.8,2.1,11,4.6l3.9-3.9   c1.2-1.2,3.3-1.2,4.5,0l0,0c1.2,1.3,1.2,3.3,0,4.5l-3.9,3.9c2.4,3.2,4,7,4.6,11h5.5c0.9,0,1.7,0.4,2.3,0.9l0,0   c0.6,0.6,0.9,1.4,0.9,2.3c0,0.9-0.4,1.7-0.9,2.3l0,0c-0.6,0.6-1.4,0.9-2.3,0.9h-5.5c-0.3,2-0.8,4-1.6,5.8c-0.8,1.9-1.8,3.6-3,5.2   l3.9,3.9c1.2,1.2,1.2,3.3,0,4.6h0c-1.3,1.2-3.3,1.3-4.5,0l-3.9-3.9c-3.2,2.4-7,4-11,4.6v5.4c0,0.9-0.4,1.7-0.9,2.3l0,0   C33.7,63.6,32.9,64,32,64c-0.9,0-1.7-0.4-2.3-0.9l0,0c-0.6-0.6-0.9-1.4-0.9-2.3v-5.4c-4-0.5-7.8-2.1-11-4.6L13.9,54.6L13.9,54.6   L13.9,54.6z M11.6,53.6c0.3,0,0.7-0.1,0.9-0.4l0,0l4.5-4.5l0.6-0.6l0.7,0.6c3.3,2.7,7.3,4.4,11.5,4.8l0.9,0.1v0.9v6.3   c0,0.4,0.1,0.7,0.4,0.9l0,0c0.2,0.2,0.6,0.4,0.9,0.4s0.7-0.1,0.9-0.4l0,0c0.2-0.2,0.4-0.6,0.4-0.9v-6.3v-0.9l0.9-0.1   c4.2-0.4,8.2-2.1,11.5-4.8l0.7-0.6l0.6,0.6l4.5,4.5c0.5,0.5,1.3,0.5,1.8,0l0,0c0.5-0.5,0.5-1.3,0-1.8L48.8,47l-0.6-0.6l0.6-0.7   c1.3-1.6,2.4-3.5,3.3-5.4c0.8-1.9,1.3-4,1.5-6.1l0.1-0.9h0.9h6.3c0.4,0,0.7-0.1,0.9-0.4l0,0c0.2-0.2,0.4-0.6,0.4-0.9   c0-0.4-0.1-0.7-0.4-0.9l0,0c-0.2-0.2-0.6-0.4-0.9-0.4h-6.3h-0.9l-0.1-0.9c-0.4-4.2-2.1-8.2-4.8-11.5l-0.6-0.7l0.6-0.6l4.5-4.5   c0.5-0.5,0.5-1.3,0-1.8l0,0c-0.5-0.5-1.3-0.5-1.8,0L47,15.2l-0.6,0.6c-3.7-3-7.3-4.9-12.2-5.3l-0.9-0.1V9.5V3.2   c0-0.7-0.6-1.3-1.3-1.3s-1.3,0.6-1.3,1.3v6.3v0.9l-0.9,0.1c-4.2,0.4-8.2,2.1-11.5,4.8l-0.7,0.6L17,15.2l-4.5-4.5   c-0.2-0.2-0.6-0.4-0.9-0.4c-0.3,0-0.7,0.1-0.9,0.4l0,0c-0.2,0.2-0.4,0.6-0.4,0.9c0,0.3,0.1,0.7,0.4,0.9l4.5,4.5l0.6,0.6l-0.6,0.7   c-2.7,3.3-4.4,7.3-4.8,11.5l-0.1,0.9H9.5H3.2c-0.4,0-0.7,0.1-0.9,0.4l0,0c-0.2,0.2-0.4,0.6-0.4,0.9c0,0.4,0.1,0.7,0.4,0.9l0,0   c0.2,0.2,0.6,0.4,0.9,0.4h6.3h0.9l0.1,0.9c0.4,4.2,2.1,8.2,4.8,11.5l0.6,0.7L15.2,47l-4.5,4.5l0,0c-0.2,0.2-0.4,0.6-0.4,0.9   c0,0.3,0.1,0.7,0.4,0.9C11,53.5,11.3,53.6,11.6,53.6L11.6,53.6z M17.8,41.6l1.4-1.4c-1-1.5-1.7-3.2-2.1-5h-2   C15.6,37.5,16.5,39.7,17.8,41.6L17.8,41.6z M21.2,41l-2.8,2.8l-0.8,0.8L17,43.7c-2.1-2.7-3.4-5.9-3.9-9.3L13,33.3h1.1h4h0.8   l0.1,0.8c0.3,2,1.1,4,2.3,5.6l0.5,0.7L21.2,41L21.2,41z M24,35.4l0.2-0.2h-0.3l0,0.1h0L24,35.4L24,35.4z M27.3,34.9l-2.8,2.8   l-0.9,0.9l-0.6-1.1c-0.3-0.5-0.5-1-0.8-1.5v0c-0.2-0.5-0.4-1.1-0.5-1.6l-0.3-1.2h1.2h4h2.3L27.3,34.9L27.3,34.9z M35.2,24.2   l0.2-0.2c-0.1,0-0.1-0.1-0.2-0.1V24.2L35.2,24.2z M33.3,28.9v-7.5c2.5,0.6,3.1,0.8,5.3,2.2L33.3,28.9L33.3,28.9z M40.2,19.3   l1.4-1.4c-1.9-1.3-4.1-2.2-6.4-2.6v2C37,17.6,38.7,18.3,40.2,19.3L40.2,19.3z M40.4,21.8c-2.5-1.8-4-2.5-7.1-3v-4.8V13l1.1,0.1   c4.1,0.5,7,2,10.2,4.5L40.4,21.8L40.4,21.8z M46.2,22.4l-1.4,1.4c1,1.5,1.7,3.2,2.1,5h2C48.4,26.5,47.5,24.3,46.2,22.4L46.2,22.4z    M45.6,20.2l0.8-0.8l0.7,0.9c2.5,3.2,3.5,6.4,4,10.4c-2,0-3.9,0-5.9,0c-0.5-3-1.1-4.6-3-7.1L45.6,20.2L45.6,20.2z M40,28.6   l-0.2,0.2h0.3C40.1,28.7,40,28.6,40,28.6L40,28.6z M36.7,29.1l3.7-3.7c1.3,2.1,1.7,3,2.2,5.3h-5.2L36.7,29.1L36.7,29.1z M28.8,39.8   L28.6,40l0.1,0l0.1,0V39.8L28.8,39.8z M26.3,39.6l2.8-2.8l1.7,0.7v4v1.2l-1.2-0.3c-1.1-0.3-2.1-0.7-3.1-1.3l-1-0.6L26.3,39.6   L26.3,39.6z M23.8,44.7l-1.4,1.4c1.9,1.3,4.1,2.2,6.4,2.7v-2C27,46.4,25.3,45.7,23.8,44.7L23.8,44.7z M20.2,45.6l2.8-2.8l0.6-0.6   l0.7,0.5c1.7,1.2,3.6,2,5.6,2.3l0.8,0.1V46v4V51l-1.1-0.1c-3.4-0.4-6.6-1.8-9.3-3.9l-0.9-0.7L20.2,45.6L20.2,45.6z M17.8,22.4   c-1.3,1.9-2.2,4.1-2.6,6.4h2c0.4-1.8,1.1-3.4,2.1-5L17.8,22.4L17.8,22.4z M17,20.3l0.7-0.9l0.8,0.8l2.8,2.8l0.6,0.6l-0.5,0.7   c-1.2,1.7-2,3.6-2.3,5.6l-0.1,0.8H18h-4H13l0.1-1.1C13.5,26.2,14.9,23,17,20.3L17,20.3z M28.6,24l0.2,0.2v-0.3l-0.1,0h0L28.6,24   L28.6,24z M29.1,27.3l-2.8-2.8l-0.9-0.9l1-0.6c0.5-0.3,1-0.5,1.5-0.8v0c0.5-0.2,1.1-0.4,1.6-0.5l1.2-0.3c0,2.5,0,5,0,7.5L29.1,27.3   L29.1,27.3z M39.8,35.2l0.2,0.2l0-0.1l0-0.1H39.8L39.8,35.2z M39.6,37.7l-2.8-2.8l-1.7-1.7h2.3h4h1.2l-0.3,1.2   c-0.1,0.5-0.3,1.1-0.5,1.6c-0.2,0.5-0.5,1-0.8,1.5l-0.6,1L39.6,37.7L39.6,37.7z M44.7,40.2l1.4,1.4c0.7-1,1.2-2,1.7-3.1   c0.4-1.1,0.8-2.2,1-3.3h-2c-0.2,0.9-0.5,1.7-0.8,2.6C45.6,38.6,45.2,39.4,44.7,40.2L44.7,40.2z M45.6,43.8L42.8,41l-0.6-0.6   l0.5-0.7c0.6-0.8,1.1-1.7,1.5-2.7c0.4-0.9,0.7-1.9,0.8-2.9l0.1-0.8H46h4H51l-0.1,1.1c-0.2,1.7-0.7,3.4-1.3,4.9   c-0.7,1.6-1.5,3.1-2.6,4.4l-0.7,0.9L45.6,43.8L45.6,43.8z M41.6,46.2l-1.4-1.4c-1.5,1-3.2,1.7-5,2.1v2   C37.5,48.4,39.7,47.5,41.6,46.2L41.6,46.2z M41,42.8l2.8,2.8l0.8,0.8L43.7,47c-2.7,2.1-5.9,3.4-9.3,3.9L33.3,51v-1.1v-4v-0.8   l0.8-0.1c1-0.2,2-0.4,2.9-0.8c1-0.4,1.9-0.9,2.7-1.5l0.7-0.5L41,42.8L41,42.8z M35.4,40l-0.2-0.2v0.3l0.1,0L35.4,40L35.4,40z    M34.9,36.7l2.8,2.8l0.9,0.9l-1,0.6c-0.5,0.3-1,0.5-1.5,0.8c-0.5,0.2-1.1,0.4-1.6,0.5l-1.2,0.3v-1.2v-4L34.9,36.7L34.9,36.7z    M24.2,28.8L24,28.6l0,0.1l0,0.1H24.2L24.2,28.8z M24.4,26.3l2.8,2.8l-0.7,1.7h-4h-1.2l0.3-1.2c0.4-1.7,1.1-2.7,1.9-4.1L24.4,26.3   L24.4,26.3z"/>
</g>
</svg>