<?xml version="1.0" encoding="iso-8859-1"?>
<!-- Uploaded to: SVG Repo, www.svgrepo.com, Generator: SVG Repo Mixer Tools -->
<svg version="1.1" id="Layer_1" xmlns="http://www.w3.org/2000/svg" xmlns:xlink="http://www.w3.org/1999/xlink" 
	 viewBox="0 0 512 512" xml:space="preserve">
<path style="fill:#FF6464;" d="M256,0c-24.376,0-44.138,19.762-44.138,44.138v8.828h88.276v-8.828C300.138,19.762,280.376,0,256,0z"
	/>
<polygon style="fill:#E4EAF6;" points="344.276,503.172 167.724,503.172 194.207,105.931 317.793,105.931 "/>
<path style="fill:#8F96AC;" d="M256,406.069L256,406.069c-14.626,0-26.483,11.857-26.483,26.483v70.621h52.966v-70.621
	C282.483,417.926,270.626,406.069,256,406.069z"/>
<polygon style="fill:#FF6464;" points="323.678,194.207 317.793,105.931 194.207,105.931 188.322,194.207 "/>
<polygon style="fill:#D2555A;" points="319.559,132.414 317.793,105.931 194.207,105.931 192.441,132.414 "/>
<g>
	<rect x="211.86" y="61.793" style="fill:#8F96AC;" width="17.655" height="35.31"/>
	<rect x="282.48" y="61.793" style="fill:#8F96AC;" width="17.655" height="35.31"/>
</g>
<path style="fill:#E4EAF6;" d="M264.828,97.103h-17.655v-8.828c0-4.875,3.953-8.828,8.828-8.828l0,0
	c4.875,0,8.828,3.953,8.828,8.828v8.828H264.828z"/>
<g>
	<polygon style="fill:#C7CFE2;" points="187.145,211.862 324.855,211.862 323.678,194.207 188.322,194.207 	"/>
	<rect x="229.52" y="432.55" style="fill:#C7CFE2;" width="52.966" height="70.62"/>
</g>
<path style="fill:#8F96AC;" d="M357.517,512H154.483c-2.438,0-4.414-1.976-4.414-4.414v-8.828c0-2.438,1.976-4.414,4.414-4.414
	h203.034c2.438,0,4.414,1.976,4.414,4.414v8.828C361.931,510.024,359.955,512,357.517,512z"/>
<path style="fill:#C7CFE2;" d="M322.207,114.759H189.793c-2.438,0-4.414-1.976-4.414-4.414v-8.828c0-2.438,1.976-4.414,4.414-4.414
	h132.414c2.438,0,4.414,1.976,4.414,4.414v8.828C326.621,112.782,324.644,114.759,322.207,114.759z"/>
<path style="fill:#707487;" d="M264.828,251.586v26.483c0,2.438-1.976,4.414-4.414,4.414h-8.828c-2.438,0-4.414-1.976-4.414-4.414
	v-26.483c0-2.438,1.976-4.414,4.414-4.414h8.828C262.851,247.172,264.828,249.149,264.828,251.586z"/>
<path style="fill:#5B5D6E;" d="M264.828,251.586v13.241h-17.655v-13.241c0-2.438,1.976-4.414,4.414-4.414h8.828
	C262.851,247.172,264.828,249.149,264.828,251.586z"/>
<path style="fill:#707487;" d="M264.828,331.034v26.483c0,2.438-1.976,4.414-4.414,4.414h-8.828c-2.438,0-4.414-1.976-4.414-4.414
	v-26.483c0-2.438,1.976-4.414,4.414-4.414h8.828C262.851,326.621,264.828,328.597,264.828,331.034z"/>
<path style="fill:#5B5D6E;" d="M264.828,331.034v13.241h-17.655v-13.241c0-2.438,1.976-4.414,4.414-4.414h8.828
	C262.851,326.621,264.828,328.597,264.828,331.034z"/>
<path style="fill:#D2555A;" d="M304.552,61.793h-97.103c-2.438,0-4.414-1.976-4.414-4.414v-8.828c0-2.438,1.976-4.414,4.414-4.414
	h97.103c2.438,0,4.414,1.976,4.414,4.414v8.828C308.966,59.817,306.989,61.793,304.552,61.793z"/>
</svg>